<?xml version="1.0" encoding="utf-8"?>
<!-- Generator: Adobe Illustrator 28.0.0, SVG Export Plug-In . SVG Version: 6.00 Build 0)  -->
<svg version="1.1" id="Layer_1" xmlns="http://www.w3.org/2000/svg" xmlns:xlink="http://www.w3.org/1999/xlink" x="0px" y="0px"
	 viewBox="0 0 2666.4 2748" style="enable-background:new 0 0 2666.4 2748;" xml:space="preserve">
<style type="text/css">
	.st0{fill:#A93CC9;}
	.st1{fill:#680586;}
	.st2{fill:#EDB3FD;}
</style>
<g id="Layer_3">
	<path class="st0" d="M571.2,210.9l-415,349.3c0.3-2.4,0.5-4.8,0.8-7.2c27.3-240.3,70.7-480.7,117-522.3
		c41.7-37.5,169.3,64.4,293.5,176.8C568.7,208.7,569.9,209.8,571.2,210.9z"/>
	<path class="st0" d="M2640.8,1690.7c0,2.2,0,4.4,0,6.6c-4.2,438.7-213.1,976.3-1196,1017.9c-2.3,0.1-4.5,0.2-6.8,0.3
		c-2.4,0.1-4.8,0.2-7.1,0.3c-2.7,0.1-5.4,0.2-8.1,0.3L2640.8,1690.7z"/>
	<path class="st1" d="M63.3,1281c30.6-145.6,67-241.3,67-241.3c-4.7-52-2.2-147.9,5.8-260.7c0.2-2.3,0.3-4.7,0.5-7.1
		c4.8-66.7,11.5-139.1,19.6-211.7c0.3-2.4,0.5-4.8,0.8-7.2l410.5-345.5c1.2,1.1,2.5,2.2,3.7,3.4c22.2,20.2,44.3,40.7,65.7,60.7
		c1.1,1.1,2.3,2.1,3.4,3.2c100,93.6,185,176.6,202.2,172.9c28.7-6.2,147.2-40.3,283.4-61.1L63.3,1281z"/>
	<path class="st1" d="M2640.8,1690.7c0,2.2,0,4.4,0,6.6l-1210,1018.4c-2.7,0.1-5.4,0.2-8.1,0.3c-33.3,1.1-67.6,1.7-102.7,1.7
		c-181.2,0-338.2-16.4-474.1-46c-2.8-0.6-5.6-1.2-8.4-1.9c-29.5-6.6-58.1-13.8-85.6-21.6c-3-0.8-6-1.7-9-2.6l1802.4-1517.1
		c0.7,1.9,1.6,4.5,2.8,7.8c14.6,41.4,63.9,191.9,84.1,384.8c0.2,2,0.4,4,0.6,6C2638,1579.2,2641.1,1634.1,2640.8,1690.7z"/>
	<path class="st0" d="M2327.2,24.4L50.5,1940.7c-30.6-138-34.2-278.3-24.7-405.8c0-0.3,0-0.6,0.1-0.9
		c6.9-92.8,20.8-178.8,36.1-252.1l1064-895.6c18.1-2.7,36.4-5.2,54.9-7.4c0.3,0,0.6-0.1,0.9-0.1c44.3-5.2,89.4-8.4,133-8.4h7.4
		c174.9,0,374.3,52.1,449.3,71.2c0.7,0.2,1.4,0.3,2.1,0.5c9.7,2.5,17.1,4.3,22,5.4C1833,455.7,2192.2,52.6,2327.2,24.4z"/>
	<path class="st0" d="M2548,1136.5L751.8,2648.3c-3-0.8-6-1.7-9-2.6c-143.2-41.6-259.7-99.4-353.9-168.5c-0.2-0.1-0.4-0.2-0.5-0.4
		c-36.8-27-70.3-55.8-100.6-86.1c-0.2-0.2-0.3-0.3-0.5-0.5L2495.8,531.4c0,0.3,0.1,0.6,0.1,0.9c12.4,119.7,17.7,246.3,13,363.1
		c-2.4,58.4-5.2,89.8-6.1,109.4l0,0c-0.2,4-0.3,7.5-0.4,10.6c-0.4,30.6,7.9,28.3,41.6,109.8c0,0,0.5,1.2,1.3,3.5
		C2545.9,1130.6,2546.8,1133.2,2548,1136.5z"/>
	<path class="st1" d="M2494.7,532.2L286.6,2390.8c-0.2-0.2-0.3-0.3-0.5-0.5c-84-83.9-143.8-178.8-185.4-278.5
		c-0.3-0.6-0.5-1.2-0.8-1.8c-22.6-54.6-39.7-110.6-52.4-167L1835.3,438.2l238.1-220.9l254.4-193.7c13.8-2.2,25-0.1,33,7.1
		c44.8,40.4,87.2,181.6,115.1,357.4c0,0.3,0.1,0.5,0.1,0.8c7.2,45.6,13.5,93.4,18.6,142.5C2494.7,531.7,2494.7,531.9,2494.7,532.2z"
		/>
	<path d="M1323.3,2740.1c-176,0-337.1-15.6-478.8-46.5c-2.9-0.6-5.7-1.2-8.5-1.9c-29.5-6.6-58.7-14-86.8-21.9
		c-3-0.8-6.1-1.7-9.2-2.6c-138.7-40.3-260-98-360.5-171.6c-0.4-0.3-0.8-0.6-1.2-0.9c-36.7-27-71.3-56.6-102.7-87.9
		c-0.1-0.1-0.2-0.2-0.3-0.3l-0.4-0.4C194,2325.3,130,2229.2,84.7,2120.4c-0.3-0.7-0.6-1.4-0.9-2.1c-22.1-53.4-40.1-110.8-53.4-170.5
		c-0.2-0.7-0.3-1.4-0.5-2.1l-0.1-0.3c-27.7-125-36.2-263.7-25.2-412.2l0.1-0.9c6.2-83,18.5-168.7,36.5-254.9
		c0.1-0.3,0.1-0.5,0.2-0.8l0.1-0.3c27.1-129.1,58.4-218.3,66.2-239.8c-4.1-52.6-1.9-144.2,6.2-259.2l0.5-7.1
		c4.9-67.7,11.7-141.2,19.7-212.6c0.3-2.4,0.5-4.9,0.8-7.3c14.8-130.6,32.7-247.3,51.7-337.7c31-147.5,56.2-184,72.5-198.6
		c37-33.3,99.4,1.3,143,30.2c46.5,30.8,103.7,77.4,180.3,146.7c1.3,1.1,2.6,2.3,3.8,3.5c19.8,18,40.8,37.3,65.9,60.9
		c1.1,1.1,2.3,2.1,3.4,3.1c13.3,12.5,26.4,24.7,39,36.6c36.7,34.5,71.4,67.1,98.6,91.1c31.2,27.5,44.1,36,49.1,38.7
		c6.1-1.5,15-3.7,25.5-6.4c51.4-13.1,147.1-37.5,254.8-53.9l0.4-0.1c0.2,0,0.3,0,0.5-0.1l0.3-0.1c19-2.9,37.7-5.4,55.7-7.5l1-0.1
		c48.7-5.7,94.3-8.5,135.5-8.5h7.4c172.9,0,365.9,49.2,448.3,70.3l6.3,1.6c0.5,0.1,0.9,0.2,1.4,0.3l0.8,0.2
		c6.8,1.7,12.5,3.2,16.8,4.2c5-2.6,17.9-11.2,49.1-38.7c27.2-23.9,61.8-56.5,98.6-91.1c63.1-59.3,134.6-126.6,201.5-182
		c80.9-67,137.3-102.1,177.6-110.6c1.8-0.4,3.4-0.7,5-0.9c26.3-4.2,42.5,4.5,51.4,12.5c66.7,60.1,107.7,278.9,122.2,370.4l0.2,0.9
		c7.3,46.3,13.6,94.5,18.7,143.5c0,0.4,0.1,0.8,0.1,1.2c13.1,127,17.6,253.5,13.1,366.1c-1.6,40.4-3.5,67.7-4.8,87.6
		c-0.6,8.7-1,15.6-1.3,21.5v0.6c-0.2,4-0.3,7-0.3,9.7c-0.2,13.7,1.1,16.3,10.9,36.6c6.3,13,15.8,32.7,28.9,64.4l0.2,0.5
		c0,0,0.5,1.3,1.4,3.9c0.7,1.9,1.7,4.6,2.9,8c14.8,42.2,64.9,194.9,85.3,389.9l0.2,1.9c0.1,1.4,0.3,2.8,0.4,4.2
		c5.7,56.3,8.4,112.1,8.2,165.8l-22.3-0.1l22.3,0.1l-22.3-0.1l22.3,0.1c0,2.2,0,4.4,0,6.7c-1.2,124.2-18.5,240.2-51.4,344.8
		c-39.4,125-101.7,235.3-185.3,327.8c-95.7,106-221,190.4-372.3,250.9c-168.5,67.3-373.1,106.5-608.3,116.5l-2.3,0.1
		c-1.6,0.1-3.1,0.1-4.7,0.2l-15.2,0.6C1393,2739.5,1358.2,2740.1,1323.3,2740.1z M404.6,2458.7L404.6,2458.7l0.8,0.6
		c96.3,70.6,213.1,126.2,347,165.1c2.9,0.8,5.9,1.7,8.8,2.5c27.4,7.8,55.8,14.9,84.5,21.3c2.8,0.6,5.5,1.2,8.3,1.8
		c138.6,30.2,296.5,45.5,469.3,45.5c34.4,0,68.7-0.6,101.9-1.7l15.2-0.6c1.5-0.1,3-0.1,4.5-0.2l2.3-0.1
		c963.3-40.8,1170.5-564.1,1174.6-995.8c0-2.2,0-4.3,0-6.4l0,0c0.3-52.1-2.4-106.4-7.9-161.2v-0.1c-0.1-1.3-0.3-2.6-0.4-3.9
		l-0.2-1.9c-19.9-190-68.5-338.6-83-379.6c-1.1-3.2-2-5.7-2.7-7.6c-0.6-1.6-0.9-2.6-1.1-3c-12.5-30.3-21.3-48.4-27.7-61.7
		c-10.8-22.2-15.7-32.4-15.4-56.6c0-3.2,0.2-6.8,0.4-11.3v-0.1c0.3-6.3,0.8-13.6,1.4-22.8c1.3-19.7,3.1-46.6,4.7-86.5
		c4.5-110.5,0-234.9-12.9-359.9l-0.1-0.9c-5-48.2-11.2-95.7-18.4-141.2l-0.1-0.9c-13.9-87.5-31.4-165.8-50.5-226.3
		c-25.4-80.5-47-108.5-57.6-118c-3.1-2.8-9.6-2.4-14.6-1.6c-0.9,0.1-1.8,0.3-2.8,0.5c-32,6.7-85.3,40.8-158.3,101.3
		c-65.8,54.5-136.8,121.3-199.4,180.1c-131.2,123.4-159,147.1-183.2,141.9c-5.2-1.1-12.6-3-22.8-5.6l-0.7-0.2
		c-0.3-0.1-0.7-0.2-1-0.2l-0.3-0.1l-6.5-1.7c-80.8-20.6-270-68.9-437.3-68.9h-7.4c-39.5,0-83.2,2.8-130.1,8.2
		c-0.4,0.1-0.8,0.1-1.3,0.1c-17.4,2-35.5,4.5-54,7.3c-0.5,0.1-0.9,0.1-1.4,0.2l0,0c-105.4,16-199.7,40.1-250.4,53
		c-14.5,3.7-24.9,6.4-31.5,7.8c-16,3.5-33.7-6.5-75.6-42.8c-29-25.1-65.4-59.4-107.7-99.1c-12.6-11.9-25.6-24.1-38.9-36.5
		c-1.1-1-2.3-2.1-3.4-3.2c-25-23.4-45.8-42.6-65.5-60.4c-1.2-1.1-2.4-2.2-3.6-3.3l-0.1-0.1C477.7,156.3,422,111,377.5,81.5
		c-25.9-17.1-47.4-28.4-64-33.5c-11.9-3.6-21.1-3.9-24.6-0.7c-8.1,7.3-30.2,39-58.7,174.7c-18.7,89-36.4,204.3-51,333.6
		c-0.3,2.4-0.5,4.8-0.8,7.2c-7.9,70.9-14.7,143.8-19.5,210.8l-0.5,7c-8.1,114.8-10.2,208.5-5.8,257.1l0.5,5.1l-1.8,4.8
		c-0.4,0.9-36.2,95.9-66,237.8c-0.1,0.3-0.1,0.5-0.2,0.8l-0.1,0.3c-17.6,84.3-29.7,168.2-35.7,249.2l-0.1,0.9
		c-10.7,144.1-2.5,278.4,24.2,399.2l0.1,0.4c0.1,0.5,0.2,1,0.3,1.6v0.2c12.8,57.3,30,112.3,51.2,163.4l0.1,0.2
		c0.2,0.5,0.4,0.9,0.6,1.4l0.1,0.2c43,103.3,103.7,194.6,180.4,271.2c0.1,0.1,0.2,0.2,0.3,0.3l0.4,0.3
		C336.7,2404.8,369.6,2433,404.6,2458.7z"/>
	<g>
		<path class="st2" d="M1527.1,768.9l135.3,85.4v1025.2l-607,508.4l15.9-39.6V821l-39.8-52.1H1527.1z M1290.2,1014.8V1817
			l133.3-106.3v-696h-133.3V1014.8z"/>
		<path d="M1527.1,768.9l135.3,85.4v1025.2l-607,508.4l15.9-39.6V821l-39.8-52.1H1527.1 M1290.2,1817l133.3-106.3v-696h-133.3V1817
			 M1540.6,722H1527h-495.6h-95l57.7,75.5l30.2,39.5v1502.4l-12.5,31.2l-69.9,173.8l143.6-120.3l607-508.4l16.8-14.1v-22.1V854.3
			v-25.8l-21.9-13.8l-135.3-85.4L1540.6,722L1540.6,722z M1337.2,1061.7h39.4v626.4l-39.4,31.4V1061.7L1337.2,1061.7z"/>
	</g>
</g>
</svg>
